<svg id="Ebene_4" data-name="Ebene 4" xmlns="http://www.w3.org/2000/svg" viewBox="0 0 170.08 170.08"><defs><style>.cls-1{fill:#007a3e;}.cls-2,.cls-4{fill:#fff;}.cls-3{fill:#006030;}.cls-3,.cls-4{fill-rule:evenodd;}.cls-5{fill:#bd1d1d;stroke:#bd1d1d;stroke-width:0.3px;}</style></defs><path class="cls-1" d="M226.77,141.74a85,85,0,1,1-85-85.05A85,85,0,0,1,226.77,141.74Z" transform="translate(-56.69 -56.69)"/><path class="cls-2" d="M61.78,141.73a80,80,0,1,0,79.95-79.95A80,80,0,0,0,61.78,141.73Zm5,0a75,75,0,1,1,75,75A75.07,75.07,0,0,1,66.74,141.73Z" transform="translate(-56.69 -56.69)"/><path class="cls-3" d="M154,140.08l.16-.23.3.23Z" transform="translate(-56.69 -56.69)"/><path class="cls-4" d="M155.37,138.67l.16-.23.3.23Z" transform="translate(-56.69 -56.69)"/><path class="cls-2" d="M92.65,151.39,88,170.54h0v0c0,1.54,1.82,1.32,2.73,1.35v.79H81v-.79c1.53,0,2.41-.29,3-1.38h0a5.71,5.71,0,0,0,.46-1.3l3.6-14.51c.34-1.36-1.68-1.26-3.07-1L85,153Z" transform="translate(-56.69 -56.69)"/><path class="cls-2" d="M102.48,170.54a5.59,5.59,0,0,1-.73.88,6.11,6.11,0,0,1-4.45,1.7,5.36,5.36,0,0,1-4.72-2.58h0A5.09,5.09,0,0,1,92,168V168h0a5.39,5.39,0,0,1,.69-2.59h0A8.73,8.73,0,0,1,97,162a7.1,7.1,0,0,1-2-4.33h0a5.68,5.68,0,0,1,0-.59,5.58,5.58,0,0,1,2.17-4.57h0a5.39,5.39,0,0,1,3.25-1.07,5.48,5.48,0,0,1,3.22,1.07h0a4,4,0,0,1,1.66,3.28,4.93,4.93,0,0,1-.34,1.88h0a7.1,7.1,0,0,1-3.66,3.36,9.28,9.28,0,0,1,2.29,4.39h0a6.85,6.85,0,0,1,.12,1.28,8.17,8.17,0,0,1-.11,1.31h0a6.91,6.91,0,0,1-1.06,2.58Zm-2.55,0a5.06,5.06,0,0,0,.57-2.37V168h0a5.74,5.74,0,0,0-.79-2.59h0a22.06,22.06,0,0,0-2-2.69,7.44,7.44,0,0,0-2.41,2.69h0a6.54,6.54,0,0,0-.62,2.59h0c0,.14,0,.28,0,.43a5.64,5.64,0,0,0,.38,2.15h0a2.47,2.47,0,0,0,2.41,1.63,2.75,2.75,0,0,0,2.43-1.63Zm2.34-12.92a5.63,5.63,0,0,0,.33-1.94c0-1.46-.53-3-1.88-3.22a2,2,0,0,0-.36,0,2.19,2.19,0,0,0-.36,0h0a2.75,2.75,0,0,0-2,2.9,4.7,4.7,0,0,0,.57,2.26h0a11.34,11.34,0,0,0,2,2.51,7.59,7.59,0,0,0,1.68-2.51Z" transform="translate(-56.69 -56.69)"/><path class="cls-2" d="M108.91,151.83h10L108.2,172.71h-2.58L115,155.3h-4.74a3.22,3.22,0,0,0-3,2.33h0s0,.07,0,.11h-.74Z" transform="translate(-56.69 -56.69)"/><path class="cls-2" d="M119.48,170.54A13.46,13.46,0,0,0,122,168h0a15.09,15.09,0,0,0,1.56-2.59h0c.11-.22.21-.44.31-.67a3.79,3.79,0,0,1-1.85.44,4.1,4.1,0,0,1-1.19-.22c-2-.66-2.93-2.87-2.93-5.11a9.58,9.58,0,0,1,.27-2.19h0a11.13,11.13,0,0,1,1.35-3.2,6.64,6.64,0,0,1,1.92-2h0a6,6,0,0,1,3.25-1.07,4.57,4.57,0,0,1,3.12,1.07h0a7.15,7.15,0,0,1,1.95,5.16h0c0,.2,0,.41,0,.61a14.41,14.41,0,0,1-2,7.14h0A17.27,17.27,0,0,1,125.9,168h0l-.39.43a15.58,15.58,0,0,1-2.51,2.14h0a16,16,0,0,1-6.74,2.58l-.17-.79a10.73,10.73,0,0,0,3.39-1.79ZM122,157.62h0a21.42,21.42,0,0,0-.62,4c0,1.26.54,2.11,1.71,2.11a2.52,2.52,0,0,0,1.1-.22c.52-.25.86-1.51,1-2.08a20.22,20.22,0,0,0,.68-2.21c.13-.49.25-1.05.36-1.64h0a15.63,15.63,0,0,0,.32-2.83,3.47,3.47,0,0,0-.31-1.79,1.64,1.64,0,0,0-.69-.54h0a1.23,1.23,0,0,0-.39-.06,1.65,1.65,0,0,0-.46.06h0c-1.35.36-1.94,2.29-2.32,3.6-.13.43-.27,1-.41,1.56Z" transform="translate(-56.69 -56.69)"/><path class="cls-2" d="M205.47,151.29a3.56,3.56,0,0,0-4.25,3l-3.39,14.49-1,.54a28.87,28.87,0,0,1-4,1.64h0a34.65,34.65,0,0,1-10.54,1.79,20.91,20.91,0,0,1-7.88-1.79h0a17.68,17.68,0,0,1-4.74-3h0a15.34,15.34,0,0,1-2.61-3h0a17.48,17.48,0,0,1-2.71-9.07h0c0-.31,0-.63,0-.95a28.41,28.41,0,0,1,.54-5.09h0c.19-1,.42-2,.71-3h0c.27-1,.59-2,1-3h0a35.08,35.08,0,0,1,2.89-6h0a26.79,26.79,0,0,1,5-6h0a23.43,23.43,0,0,1,2.76-2.12A24.53,24.53,0,0,1,189.58,126a17.68,17.68,0,0,1,7,1.08,9.45,9.45,0,0,0,3.27.8c.79,0,1.52-.8,1.94-1.48l.24-.4H204l-1.2,5.69h0l-1.28,6h0l-.61,2.89-1.7-.27a16.35,16.35,0,0,0,0-2.62h0a12.56,12.56,0,0,0-1.95-6h0a7.37,7.37,0,0,0-6.39-3.33,11.28,11.28,0,0,0-7.55,3.33h0a24.1,24.1,0,0,0-4.65,6h0a36.5,36.5,0,0,0-2.66,6h0c-.33,1-.64,2-.9,3h0c-.25,1-.47,2-.66,3h0a41.64,41.64,0,0,0-.65,6h0c0,.47,0,.94,0,1.4a19.67,19.67,0,0,0,1.42,7.66h0a9.81,9.81,0,0,0,2,3h0a9.28,9.28,0,0,0,11.64.64,2.6,2.6,0,0,0,.5-.65h0a13.37,13.37,0,0,0,1-3h0l2.13-9.07.18-.75a8,8,0,0,0-.06-2.09c-.73-1.82-2.85-1.48-4.3-1.68v-1.83h17.22Z" transform="translate(-56.69 -56.69)"/><path class="cls-2" d="M101.63,142.57a8.17,8.17,0,0,0,0,1.15h0a2.11,2.11,0,0,0,1.3,1.67,6.57,6.57,0,0,0,3,.61v.74h0v.94H88.16V146a6.35,6.35,0,0,0,2.86-.95,5.25,5.25,0,0,0,1.06-1.34h0a13.47,13.47,0,0,0,1.12-3.32L101,107.8c0-3.3-2.12-2.56-4.37-3v-1.69h32L126,115.75l-1.64-.34c.18-6.53-2.61-10.24-10.43-10.24-.85,0-2.43,0-3,.81a6.87,6.87,0,0,0-1.15,3l-2.61,10.6h0L106.3,123c4.85-.11,7.76-.13,10.08-3.48h0a17.64,17.64,0,0,0,1.81-3.6l1.69.27-4.48,18.2-1.64-.34c0-.46.16-1.39.18-2.44h0a10,10,0,0,0-.54-3.76c-1.1-2.69-5.4-2.63-7.65-2.69Z" transform="translate(-56.69 -56.69)"/><path class="cls-2" d="M133.29,157.75l1.89.14a22.48,22.48,0,0,0,.67,5.12,8.21,8.21,0,0,0,.71,1.86h0a10,10,0,0,0,2.39,3h0a10.31,10.31,0,0,0,6.6,2.52,7.66,7.66,0,0,0,6.11-2.52l.09-.11a10.11,10.11,0,0,0,1.58-2.91h0a9.12,9.12,0,0,0,.58-2.95c0-2.34-1.21-4.29-3-6.12h0c-2-2-4.61-3.94-7-6h0c-.4-.35-.79-.7-1.16-1.05a16.22,16.22,0,0,1-2.42.18,17.47,17.47,0,0,1-8.61-2.16h0a15.29,15.29,0,0,1-3.81-3h0a15.62,15.62,0,0,1-3.4-6h0a19.52,19.52,0,0,1-.79-5.62v-.42h0a35.33,35.33,0,0,1,2.11-12.08h0a29.61,29.61,0,0,1,8.2-11.82c4.24-3.77,8.49-5.59,14-5.59a19.87,19.87,0,0,1,7.16,1.15,12.57,12.57,0,0,0,3.4.74c.67,0,1.39-.81,1.7-1.42a4.35,4.35,0,0,1,.3-.54h1.82l-3,15.57-1.94-.41c.72-6.2-1.16-12.73-7.83-12.73s-10.85,7.41-13.4,13.14c-.26.58-.51,1.23-.75,1.91h0A50,50,0,0,0,133,131.64h0c0,.62-.07,1.21-.07,1.77a20.54,20.54,0,0,0,.42,4.27h0a9.74,9.74,0,0,0,3.52,6h0a8.06,8.06,0,0,0,2.64,1.25c-.26-.41-.51-.82-.73-1.25h0a11.3,11.3,0,0,1-1.26-5.18c0-.29,0-.58,0-.87h0a12.85,12.85,0,0,1,2.13-6h0a12.06,12.06,0,0,1,2.15-2.46,13.57,13.57,0,0,1,9.36-3.23,21.81,21.81,0,0,1,6.87,1.28c1.28.33,3.1,1,4.31.27a3.2,3.2,0,0,0,1.42-1.42h1.95l-2.63,13.41-1.81-.27c0-.51-.07-1-.14-1.54h0a13.47,13.47,0,0,0-2.08-6h0a7.61,7.61,0,0,0-6.61-3.33,6.4,6.4,0,0,0-6.07,3.33h0a8.1,8.1,0,0,0-.8,3.67,6.18,6.18,0,0,0,.45,2.37h0a11.08,11.08,0,0,0,3.39,4.1l.65.53a22.1,22.1,0,0,0,4.26-4.63h.46l1.52,1.18a21.35,21.35,0,0,1-3.8,4.86h0l-.32.29,1.74,1.4c.52.43,1,.87,1.54,1.32h0a25.9,25.9,0,0,1,2.91,3h0a15,15,0,0,1,3.15,6h0a12.35,12.35,0,0,1,.35,2.95,14.12,14.12,0,0,1-1.13,6.11h0a14.54,14.54,0,0,1-1.22,2.17c-.18.26-.39.54-.64.85h0a12.36,12.36,0,0,1-3.73,3h0a16.75,16.75,0,0,1-8,1.79c-.94,0-1.95-.13-3-.2a38.36,38.36,0,0,1-7.09-1.59h0l-2-.56a1.64,1.64,0,0,0-1.14.56h0a5.63,5.63,0,0,0-1.15,1.79h-2Z" transform="translate(-56.69 -56.69)"/><path class="cls-5" d="M141.73,141.73" transform="translate(-56.69 -56.69)"/><path class="cls-2" d="M101.36,189c.29-.88,1.25-2.83-.3-4.29a1.57,1.57,0,0,0-2.55.35c-.39.71-.13,1.43.35,2.6a9.35,9.35,0,0,1,.86,2.53,3.21,3.21,0,0,1-4.77,3.2c-1.4-.82-1.4-1.05-2.55-2.76-.44-.62-.63-.35-.87-.16l-.27-.25,2.61-2.84.26.25-.51,1a4.14,4.14,0,0,0-.26,2,2.66,2.66,0,0,0,2.07,2.23,1.69,1.69,0,0,0,1.7-2.42c-.27-.72-.52-1.43-.79-2.15-1.37-3.8,1.72-5.16,3-5,2,.23,2.78,1.9,3.31,2.8.44.71.67.38,1,.27l.26.24-2.32,2.56Z" transform="translate(-56.69 -56.69)"/><path class="cls-2" d="M106.18,199.47a1.23,1.23,0,0,0,.39,1.84l-.18.28-4.34-2.74.17-.28a1.23,1.23,0,0,0,1.83-.45l4.59-7.3a2.71,2.71,0,0,0-2.33-.6,3.06,3.06,0,0,0-1.77,1.21l-.29-.18,1.71-2.72L114,193.6l-1.71,2.72-.3-.19a3,3,0,0,0,.34-2.11,2.75,2.75,0,0,0-1.56-1.85Z" transform="translate(-56.69 -56.69)"/><path class="cls-2" d="M111.34,201.47a1.3,1.3,0,0,1,.64,1.72,1.3,1.3,0,1,1-2.36-1.09A1.29,1.29,0,0,1,111.34,201.47Z" transform="translate(-56.69 -56.69)"/><path class="cls-2" d="M130.76,199.28l-1,3.64-.42-.16a5.14,5.14,0,0,0-1.53-3.32,3.26,3.26,0,0,0-1.47-.94,2.21,2.21,0,0,0-1,0,3.09,3.09,0,0,0-1.91,1.53,11.8,11.8,0,0,0-1.55,5.8,3.08,3.08,0,0,0,.89,2.28,2.15,2.15,0,0,0,.88.48,4.12,4.12,0,0,0,1.27.16.82.82,0,0,0,.85-.65l.52-2a1.22,1.22,0,0,0-.91-1.64l.09-.32,4.95,1.32-.08.32a1.23,1.23,0,0,0-1.61,1l-.68,2.53c-.51.31-2.61,0-3,0a10.54,10.54,0,0,1-1.5-.34,6,6,0,0,1-2.86-1.8,5.87,5.87,0,0,1,2.39-8.93,6,6,0,0,1,3.37-.14,13.46,13.46,0,0,1,2.65,1.42c.82.42.93-.11,1.2-.36Z" transform="translate(-56.69 -56.69)"/><path class="cls-2" d="M138.23,200.2l3.53,10a1,1,0,0,0,1.07.77l0,.34-5.05-.26v-.34c.67,0,1.71,0,1.4-.91l-.65-1.83-3.63-.19-.63,1.4c-.36.79,0,1.35,1.05,1.41v.33l-3.18-.17,0-.33c.43,0,.83-.1,1.23-.95l4.37-9.26Zm.07,7.1-1.42-4-1.72,3.84Z" transform="translate(-56.69 -56.69)"/><path class="cls-2" d="M156,206.09l-.11,3.66-9,1.32-.05-.33a1.22,1.22,0,0,0,1.09-1.53l-1.07-7.37a1.23,1.23,0,0,0-1.49-1.14l-.05-.33,5.08-.75,0,.33a1.24,1.24,0,0,0-1.1,1.53l1.09,7.43a1.26,1.26,0,0,0,1.45.93c2.47-.36,3.13-1.44,3.69-3.69Z" transform="translate(-56.69 -56.69)"/><path class="cls-2" d="M168,202.22l.58,3.62-8.57,3-.11-.31a1.22,1.22,0,0,0,.78-1.71l-2.44-7a1.23,1.23,0,0,0-1.68-.85l-.11-.32,4.85-1.68.11.31a1.24,1.24,0,0,0-.79,1.71l2.47,7.09a1.26,1.26,0,0,0,1.6.64c2.36-.82,2.8-2,2.92-4.31Z" transform="translate(-56.69 -56.69)"/><path class="cls-2" d="M175,200.87c.4.71.6.85,1.33.5,2.06-1,2.77-2.18,2.61-4.73l.37-.21,1,3.18-7.87,4.54-.17-.29a1.21,1.21,0,0,0,.45-1.82L169,195.59a1.22,1.22,0,0,0-1.8-.52l-.17-.29,7.78-4.48,1.64,2.84-.28.16c-.4-.39-1.59-2.18-3.78-1l-1.2.66c-.5.27-.53.45-.12,1.15l1.82,3.15c1.53-1,1.65-1.36,1.08-3.36l.29-.17,2.65,4.59-.29.16c-1.45-1.49-1.83-1.57-3.45-.74Z" transform="translate(-56.69 -56.69)"/><path class="cls-2" d="M191.86,190.93,181,189.12l4.43,5a1.21,1.21,0,0,0,1.85.18l.22.25-2.38,2.08-.22-.25a1.2,1.2,0,0,0,.07-1.85L180,189l-.91-.14c-.35-.06-.69-.21-1,.08l-.22-.26,2.51-2.2L189,188l-3.42-3.9a1.2,1.2,0,0,0-1.85-.17l-.22-.25,2.38-2.09.22.25a1.19,1.19,0,0,0-.06,1.85l6.13,7Z" transform="translate(-56.69 -56.69)"/></svg>