<svg id="Ebene_1" data-name="Ebene 1" xmlns="http://www.w3.org/2000/svg" viewBox="0 0 1594.13 173.89"><defs><style>.cls-1{fill:#868786;}.cls-2{fill:#ec6500;}</style></defs><title>191031_Logo DrivingGraubuenden</title><path class="cls-1" d="M1468.79,124.24H1445.5l5.58-24.39h23.29Z" transform="translate(-53.33 -26.44)"/><path class="cls-1" d="M1526.71,126.17a49.06,49.06,0,0,1-13.41-1.77,30.53,30.53,0,0,1-10.91-5.51,25.16,25.16,0,0,1-7.09-9.22,30.18,30.18,0,0,1-2.55-12.82,42.48,42.48,0,0,1,13.62-31.57,46.79,46.79,0,0,1,15.5-9.37,55.62,55.62,0,0,1,19.79-3.45,57,57,0,0,1,12.72,1.43,50.69,50.69,0,0,1,11.74,4.16l-4.73,19.07h-3.18a23.74,23.74,0,0,0-8.3-6.55,24.58,24.58,0,0,0-10.42-2.14q-10.59,0-17,7.51t-6.41,18.74q0,7.78,4,11.66t12.28,3.86a26.09,26.09,0,0,0,11.77-2.64,44.28,44.28,0,0,0,9.11-5.87h3.17l-4.72,19.08a76.12,76.12,0,0,1-11.79,4.16A56.86,56.86,0,0,1,1526.71,126.17Z" transform="translate(-53.33 -26.44)"/><path class="cls-1" d="M1647.46,70.19c0,1-.09,2.28-.25,3.85a36.82,36.82,0,0,1-.81,4.73l-10.48,45.47h-22.65l8-34.66q.87-4,1.37-6.72a28.07,28.07,0,0,0,.5-4.92q0-4.17-2.09-6t-7.57-1.83a20,20,0,0,0-6.17,1.15,51.07,51.07,0,0,0-7.79,3.45l-11.42,49.54h-22.52l22.29-96.71h22.52l-8,34.56A88,88,0,0,1,1615,55a30.61,30.61,0,0,1,12.58-2.55q9.53,0,14.7,4.63T1647.46,70.19Z" transform="translate(-53.33 -26.44)"/><path class="cls-2" d="M153,66.69a54,54,0,0,1-8.27,29,57,57,0,0,1-21.19,20.39,51.82,51.82,0,0,1-16.35,5.63,128.12,128.12,0,0,1-20.38,1.4H53.33L74.71,30.56h30q13.23,0,21.31,2.06a39.77,39.77,0,0,1,13,5.53,31.46,31.46,0,0,1,10.41,11.78A36.6,36.6,0,0,1,153,66.69ZM128,68.9A23.46,23.46,0,0,0,125.64,58a18,18,0,0,0-7.2-7.37,21.38,21.38,0,0,0-4.57-1.9,33,33,0,0,0-5.32-1c-1.9-.17-4.08-.25-6.52-.25H94.82L81.17,106.21H91a56.5,56.5,0,0,0,6.65-.31,39.15,39.15,0,0,0,5.93-1,29.12,29.12,0,0,0,5.81-2.31,31.55,31.55,0,0,0,13.76-13.74A42.2,42.2,0,0,0,128,68.9Z" transform="translate(-53.33 -26.44)"/><path class="cls-2" d="M219.73,74.62h-2a20.78,20.78,0,0,0-4.22-.73q-2.73-.24-5.4-.24a53.42,53.42,0,0,0-8.5.66,54.31,54.31,0,0,0-8.44,2.08l-10.83,46.76H157.82L174,53.29h22.53l-2.37,10.26A72.1,72.1,0,0,1,206.79,56a30.24,30.24,0,0,1,12.69-2.88c.78,0,1.66,0,2.63.06s1.83.1,2.58.19Z" transform="translate(-53.33 -26.44)"/><path class="cls-2" d="M259.84,53.29l-16.19,69.86H221.13l16.19-69.86Zm6.84-26.85-3.92,16.94H239L243,26.44Z" transform="translate(-53.33 -26.44)"/><path class="cls-2" d="M350.49,53.29l-43.17,69.86H281.78L271.24,53.29h23.08l5.07,48.29,27.06-48.29Z" transform="translate(-53.33 -26.44)"/><path class="cls-2" d="M386,53.29l-16.18,69.86H347.31L363.5,53.29Zm6.84-26.85L389,43.38H365.22l3.91-16.94Z" transform="translate(-53.33 -26.44)"/><path class="cls-2" d="M472.72,69.09a36.9,36.9,0,0,1-.24,4,40.49,40.49,0,0,1-.81,4.55l-10.4,45.47H438.64l7.9-34.67q.87-3.86,1.35-6.59a28.73,28.73,0,0,0,.5-5.11c0-2.7-.69-4.66-2.06-5.91S442.44,69,438.77,69a20.31,20.31,0,0,0-6.18,1.15,52.06,52.06,0,0,0-7.87,3.46l-11.35,49.54H390.85l16.09-69.86h22.53L427.63,61a91.78,91.78,0,0,1,12.63-7.09,30.43,30.43,0,0,1,12.57-2.55q9.42,0,14.66,4.54T472.72,69.09Z" transform="translate(-53.33 -26.44)"/><path class="cls-2" d="M565.82,53.29l-14.07,61.84a52,52,0,0,1-6.54,16.55,34.71,34.71,0,0,1-10.29,10.52,41,41,0,0,1-13.53,5.66,75.87,75.87,0,0,1-16.4,1.62,112.27,112.27,0,0,1-14.47-.91,107.52,107.52,0,0,1-11.66-2.08l3.43-17.2H485a74.49,74.49,0,0,0,10.5,3.2,43.8,43.8,0,0,0,9.42,1.19,42.84,42.84,0,0,0,10.31-1.09,17.27,17.27,0,0,0,6.87-3.14,16,16,0,0,0,4.27-5.34,31.87,31.87,0,0,0,2.56-7.77l.31-1.31a52,52,0,0,1-9.67,5.23,29,29,0,0,1-10.85,1.92q-11.79,0-18.43-5.91t-6.64-17.86q0-20.59,11.66-33.82t28.33-13.23a39,39,0,0,1,10.89,1.43,25.89,25.89,0,0,1,7.89,3.61L544,53.29Zm-26.2,16.19A29.71,29.71,0,0,0,534.83,68a23,23,0,0,0-5.22-.71,19.84,19.84,0,0,0-16.19,7.52q-6.12,7.53-6.12,19.34,0,5.34,2.62,8.33t9.45,3a19.06,19.06,0,0,0,6.72-1.27,41.93,41.93,0,0,0,6.41-3Z" transform="translate(-53.33 -26.44)"/><path class="cls-1" d="M617.59,125.08q-19.73,0-30.88-9.33t-11.16-26.5q0-26.74,17.22-43.64t43.71-16.89A94.71,94.71,0,0,1,655,30.43a67.35,67.35,0,0,1,17.75,6.5L667.5,58.65h-2.67q-7.47-7.11-14.12-9.87A37.74,37.74,0,0,0,636,46a32.34,32.34,0,0,0-14.74,3.32,34.67,34.67,0,0,0-11.26,9A39.87,39.87,0,0,0,603.14,71a47.44,47.44,0,0,0-2.49,15.35q0,11.13,6.11,16.38T626.63,108c.91,0,1.91,0,3,0s2.07-.11,3-.19l4.17-18.1H618.29l4.05-17.46h42.73l-10.56,45.71a177.58,177.58,0,0,1-17.62,5A85,85,0,0,1,617.59,125.08Z" transform="translate(-53.33 -26.44)"/><path class="cls-1" d="M735.84,74.62h-2a20.78,20.78,0,0,0-4.22-.73q-2.73-.24-5.4-.24a53.33,53.33,0,0,0-8.5.66,54.31,54.31,0,0,0-8.44,2.08l-10.83,46.76H673.94l16.18-69.86h22.53l-2.38,10.26A72.47,72.47,0,0,1,722.9,56a30.32,30.32,0,0,1,12.7-2.88c.78,0,1.66,0,2.63.06s1.83.1,2.58.19Z" transform="translate(-53.33 -26.44)"/><path class="cls-1" d="M781.3,115.75l-5.1,3.32a41.31,41.31,0,0,1-5.54,3.07,46.47,46.47,0,0,1-6.54,2.19,37.15,37.15,0,0,1-8.46.75q-8.71,0-14.22-4.88a16.17,16.17,0,0,1-5.51-12.72,24.34,24.34,0,0,1,3.91-14,26.69,26.69,0,0,1,11.62-9.17,64.29,64.29,0,0,1,17.17-4.66q10-1.42,21.58-2.12c0-.25.14-.66.28-1.22a8.06,8.06,0,0,0,.21-1.92,6.29,6.29,0,0,0-4.11-6.22q-4.1-1.79-12.24-1.78a45.57,45.57,0,0,0-12.21,1.87q-6.67,1.89-10,3.13h-2.05l3.29-16.53q3.92-1,12.13-2.23a108.85,108.85,0,0,1,16.35-1.25q16.41,0,24.09,4.29T813.6,69c0,.83-.08,1.91-.22,3.23a26.63,26.63,0,0,1-.59,3.48l-11,47.49H779.57Zm6-25.51q-6,.49-11.24,1.18a44.3,44.3,0,0,0-8.93,2,12.79,12.79,0,0,0-5.81,3.85,10.16,10.16,0,0,0-2,6.57q0,3.6,2.65,5.06t7.71,1.46a19.12,19.12,0,0,0,7.09-1.52,33.77,33.77,0,0,0,7.08-3.87Z" transform="translate(-53.33 -26.44)"/><path class="cls-1" d="M908.19,53.29l-16.13,69.86H869.54l1.78-7.71q-3.36,2.18-6.56,4.07a42.17,42.17,0,0,1-6.07,3,32.17,32.17,0,0,1-6.59,2,33.88,33.88,0,0,1-5.9.53q-9.21,0-14.53-4.42t-5.31-13.06a35.24,35.24,0,0,1,.25-4.39,42.86,42.86,0,0,1,.81-4.44l10.49-45.48h22.62l-8,34.67c-.62,2.65-1.09,4.94-1.4,6.85a31,31,0,0,0-.47,4.85q0,4.11,2,5.94t7.53,1.84a20.44,20.44,0,0,0,6.32-1.18,49.05,49.05,0,0,0,7.75-3.43l11.43-49.54Z" transform="translate(-53.33 -26.44)"/><path class="cls-1" d="M995.64,75.63a56.32,56.32,0,0,1-3.09,18.49,51.23,51.23,0,0,1-8.43,15.62,42.87,42.87,0,0,1-12.82,10.8,33.42,33.42,0,0,1-16.25,4,42,42,0,0,1-10.49-1.2,26,26,0,0,1-8.25-3.68l-1.63,3.48H913.06l22.29-96.71h22.51L950,60.56a78.32,78.32,0,0,1,11.49-6.68,28.61,28.61,0,0,1,12.17-2.52q10.83,0,16.4,6.44T995.64,75.63Zm-23.7,4.19q0-5.85-2.55-8.91t-8.87-3A19.14,19.14,0,0,0,954,69a54.25,54.25,0,0,0-6.74,3l-8,35.14a29.07,29.07,0,0,0,4.61,1.4,26.06,26.06,0,0,0,5.48.53,19.49,19.49,0,0,0,16.5-8.2Q971.95,92.72,971.94,79.82Z" transform="translate(-53.33 -26.44)"/><path class="cls-1" d="M1088,53.29l-16.13,69.86h-22.52l1.78-7.71q-3.36,2.18-6.56,4.07a42.17,42.17,0,0,1-6.07,3,32.17,32.17,0,0,1-6.59,2,33.88,33.88,0,0,1-5.9.53q-9.21,0-14.52-4.42t-5.32-13.06a35.24,35.24,0,0,1,.25-4.39,42.86,42.86,0,0,1,.81-4.44l10.49-45.48h22.62l-8,34.67c-.62,2.65-1.09,4.94-1.4,6.85a31,31,0,0,0-.47,4.85c0,2.74.67,4.72,2,5.94s3.84,1.84,7.54,1.84a20.44,20.44,0,0,0,6.31-1.18,49.05,49.05,0,0,0,7.75-3.43l11.44-49.54Zm-37-26.85-3.92,16.94h-18.46l3.91-16.94Zm33.34,0-3.91,16.94H1062l3.92-16.94Z" transform="translate(-53.33 -26.44)"/><path class="cls-1" d="M1174.73,69.09a34.69,34.69,0,0,1-.25,4,36.42,36.42,0,0,1-.81,4.55l-10.39,45.47h-22.63l7.89-34.67q.87-3.86,1.36-6.59a28.67,28.67,0,0,0,.49-5.11c0-2.7-.68-4.66-2.06-5.91s-3.89-1.87-7.55-1.87a20.31,20.31,0,0,0-6.19,1.15,52.5,52.5,0,0,0-7.87,3.46l-11.35,49.54h-22.52l16.09-69.86h22.53L1129.63,61a93,93,0,0,1,12.63-7.09,30.47,30.47,0,0,1,12.57-2.55q9.42,0,14.66,4.54T1174.73,69.09Z" transform="translate(-53.33 -26.44)"/><path class="cls-1" d="M1274,26.44l-22.38,96.71h-22.53l1.69-7.28c-2.16,1.37-4.06,2.61-5.7,3.7a38.32,38.32,0,0,1-5.43,3,30.64,30.64,0,0,1-5.51,1.87,29.64,29.64,0,0,1-6.49.62q-10.14,0-16.2-6.59t-6.06-18.73a53.73,53.73,0,0,1,3.2-18.69,51.43,51.43,0,0,1,8.81-15.46,41.57,41.57,0,0,1,12.93-10.39A33.61,33.61,0,0,1,1226,51.36a38.63,38.63,0,0,1,10,1.15,41,41,0,0,1,8.7,3.58l6.86-29.65Zm-32.52,43.2a24.67,24.67,0,0,0-4.73-1.59,21.92,21.92,0,0,0-5.16-.72A19.58,19.58,0,0,0,1222,69.7a22,22,0,0,0-7.27,6.46,28.78,28.78,0,0,0-4.23,9.36,41.4,41.4,0,0,0-1.55,11q0,6.29,2.92,9.14t8.87,2.86a17,17,0,0,0,6.42-1.37,42.47,42.47,0,0,0,6.43-3.23Z" transform="translate(-53.33 -26.44)"/><path class="cls-1" d="M1312.06,125.08q-17.86,0-27.59-7.9t-9.72-21.83a46.9,46.9,0,0,1,3.17-17.48,41.61,41.61,0,0,1,9.16-14,41,41,0,0,1,14.33-9.26,50.6,50.6,0,0,1,18.87-3.42q15.65,0,23.58,6.31t7.94,18.63a40.66,40.66,0,0,1-.84,8.28,64.61,64.61,0,0,1-2.22,8h-52v1.43q0,7.29,5.12,11.4t15.67,4.11a39,39,0,0,0,14-2.5,64.65,64.65,0,0,0,11.45-5.57h2.5l-4.17,18a68,68,0,0,1-13.76,4.33A78.1,78.1,0,0,1,1312.06,125.08Zm17.16-45.81c.13-.75.22-1.43.28-2a17.43,17.43,0,0,0,.1-1.93c0-3.28-1-5.79-3.07-7.53s-5-2.62-8.82-2.62A18.24,18.24,0,0,0,1306,68.88a22.91,22.91,0,0,0-7.16,10.39Z" transform="translate(-53.33 -26.44)"/><path class="cls-1" d="M1435.85,70a37,37,0,0,1-.24,4,38.1,38.1,0,0,1-.8,4.54l-10.41,45.48h-22.62l7.89-34.67q.87-3.85,1.36-6.59a29.72,29.72,0,0,0,.49-5.11q0-4-2.06-5.91t-7.55-1.87a20,20,0,0,0-6.19,1.15,52.06,52.06,0,0,0-7.87,3.46l-11.35,49.54H1354l16.1-69.86h22.52l-1.84,7.71a90.74,90.74,0,0,1,12.63-7.09A30.43,30.43,0,0,1,1416,52.29q9.42,0,14.66,4.54T1435.85,70Z" transform="translate(-53.33 -26.44)"/><path class="cls-1" d="M611.79,148.13h-29l-3.87,16.73h25l-1.5,6.48h-25L571,199.13h-7.74l13.29-57.49h36.74Z" transform="translate(-53.33 -26.44)"/><path class="cls-1" d="M642,194.53c-.7.41-1.64,1-2.84,1.76a26.64,26.64,0,0,1-3.63,2,25.76,25.76,0,0,1-4.4,1.49,23.33,23.33,0,0,1-5.58.6,11.69,11.69,0,0,1-8.32-3,10.21,10.21,0,0,1-3.19-7.82,15.78,15.78,0,0,1,2.24-8.66,16.57,16.57,0,0,1,6.68-5.77,35.91,35.91,0,0,1,10.49-3.19,110.12,110.12,0,0,1,14-1.21c.18-.73.32-1.35.44-1.88a7.92,7.92,0,0,0,.18-1.64,5.58,5.58,0,0,0-.74-3,5.21,5.21,0,0,0-2.08-1.85,9.72,9.72,0,0,0-3.14-1,28.38,28.38,0,0,0-4-.25,30.91,30.91,0,0,0-7.48,1.06,54.6,54.6,0,0,0-6.83,2.1h-.38l1.43-7.27q2.19-.59,6.44-1.32a47.66,47.66,0,0,1,8.13-.73q8,0,12,2.51c2.68,1.67,4,4.33,4,8a16.19,16.19,0,0,1-.17,2.22c-.12.78-.26,1.53-.41,2.22l-6.78,29.28H641Zm4.2-18.12a99.1,99.1,0,0,0-10.53.91,31.78,31.78,0,0,0-7.6,1.94,10.85,10.85,0,0,0-4.74,3.46,8.89,8.89,0,0,0-1.61,5.42,5.07,5.07,0,0,0,1.88,4.24q1.89,1.47,5.85,1.47a18,18,0,0,0,7.13-1.57,37.6,37.6,0,0,0,6.79-3.77Z" transform="translate(-53.33 -26.44)"/><path class="cls-1" d="M711.93,165.87a23.52,23.52,0,0,1-.18,2.51,20.17,20.17,0,0,1-.48,2.78l-6.48,28h-7.21l5.64-24.53c.3-1.37.54-2.56.71-3.58a19.31,19.31,0,0,0,.24-3,6.7,6.7,0,0,0-1.6-4.88c-1.07-1.09-3-1.64-5.78-1.64a15.66,15.66,0,0,0-6.46,1.62,49.16,49.16,0,0,0-6.9,3.87L676,199.13h-7.25l13.84-60h7.25l-5,21.74a43.35,43.35,0,0,1,7.74-4.44,18.63,18.63,0,0,1,7.42-1.55c3.75,0,6.68.94,8.77,2.84S711.93,162.29,711.93,165.87Z" transform="translate(-53.33 -26.44)"/><path class="cls-1" d="M760.18,163.66h-.39a25,25,0,0,0-2.87-.54,24.46,24.46,0,0,0-3.21-.17,17.11,17.11,0,0,0-7.19,1.64,42.5,42.5,0,0,0-6.84,3.94l-7,30.6h-7.33L735.2,156h7.33l-1.45,6.37a44.37,44.37,0,0,1,8.69-5,18.87,18.87,0,0,1,6.86-1.39,25.43,25.43,0,0,1,2.74.1c.56.06,1.39.18,2.47.36Z" transform="translate(-53.33 -26.44)"/><path class="cls-1" d="M779.15,200.17a28.61,28.61,0,0,1-8.63-1.2,35.68,35.68,0,0,1-6.35-2.59l1.62-7.76h.39c.54.46,1.24,1,2.1,1.64a18.82,18.82,0,0,0,3.3,1.86,24,24,0,0,0,4.15,1.53,19.13,19.13,0,0,0,5,.63c3.62,0,6.47-.66,8.52-2a6.59,6.59,0,0,0,3.09-5.9,3.6,3.6,0,0,0-1.58-3.15,13.59,13.59,0,0,0-4.55-1.8c-1-.23-2.21-.49-3.61-.77s-2.82-.62-4.26-1a13.73,13.73,0,0,1-6.67-3.69,8.51,8.51,0,0,1-2.16-5.89,12.37,12.37,0,0,1,1.31-5.64,15.47,15.47,0,0,1,3.9-4.82,18.87,18.87,0,0,1,6.29-3.39,26.34,26.34,0,0,1,8.48-1.29,31.19,31.19,0,0,1,7.7,1,24,24,0,0,1,6.27,2.39l-1.54,7.43h-.39c-.41-.34-1-.78-1.87-1.35a20.88,20.88,0,0,0-7.07-3,18.9,18.9,0,0,0-4.61-.55,13.79,13.79,0,0,0-7.83,2,6.32,6.32,0,0,0-3,5.53,4.09,4.09,0,0,0,1.47,3.22,10.24,10.24,0,0,0,4.47,2q1.89.47,4,.87t4,.87a13.78,13.78,0,0,1,6.74,3.48,8.22,8.22,0,0,1,2.25,5.91,12.92,12.92,0,0,1-1.41,5.81,14.22,14.22,0,0,1-4.06,4.92,20.26,20.26,0,0,1-6.64,3.44A28.74,28.74,0,0,1,779.15,200.17Z" transform="translate(-53.33 -26.44)"/><path class="cls-1" d="M830.72,156l-9.93,43.1h-7.27l9.93-43.1Zm3.94-14.72-1.74,7.53h-8.23l1.75-7.53Z" transform="translate(-53.33 -26.44)"/><path class="cls-1" d="M860.42,200.11a24.85,24.85,0,0,1-7.24-1,14.67,14.67,0,0,1-5.5-3.05,13.36,13.36,0,0,1-3.52-5.06,19,19,0,0,1-1.23-7.11,33.16,33.16,0,0,1,1.89-11.32,28.72,28.72,0,0,1,5.37-9.23,24.12,24.12,0,0,1,8.31-6.13A25.38,25.38,0,0,1,869.16,155a23.94,23.94,0,0,1,7.12,1,31.52,31.52,0,0,1,5.89,2.47l-1.59,7.83h-.42c-.52-.46-1.16-1-1.93-1.61a16.11,16.11,0,0,0-2.74-1.72,17.7,17.7,0,0,0-3.52-1.4,15.93,15.93,0,0,0-4.4-.56,14.6,14.6,0,0,0-12.22,6.33,24.94,24.94,0,0,0-4.74,15.39q0,5.44,2.81,8.37t8,2.94a17.66,17.66,0,0,0,4.85-.7,26,26,0,0,0,4.14-1.49,37.23,37.23,0,0,0,3.51-1.88c1.08-.66,1.86-1.16,2.35-1.49h.43l-1.55,7.9A55.62,55.62,0,0,1,868,199,26.62,26.62,0,0,1,860.42,200.11Z" transform="translate(-53.33 -26.44)"/><path class="cls-1" d="M932.66,165.87c0,.62-.06,1.45-.17,2.51a21.8,21.8,0,0,1-.48,2.78l-6.49,28h-7.21L924,174.6c.31-1.37.54-2.56.71-3.58a19.33,19.33,0,0,0,.25-3,6.66,6.66,0,0,0-1.61-4.88q-1.6-1.63-5.77-1.64a15.7,15.7,0,0,0-6.47,1.62,49.06,49.06,0,0,0-6.89,3.87l-7.42,32.16H889.5l13.85-60h7.24l-5,21.74a43.29,43.29,0,0,1,7.73-4.44,18.63,18.63,0,0,1,7.42-1.55c3.76,0,6.68.94,8.78,2.84S932.66,162.29,932.66,165.87Z" transform="translate(-53.33 -26.44)"/><path class="cls-1" d="M966.47,200.11q-8.93,0-14-4.2t-5.08-12.3a29.6,29.6,0,0,1,7.48-20.31,23.68,23.68,0,0,1,18.5-8.47q7.32,0,11.21,3.65t3.9,10.24a31.44,31.44,0,0,1-.33,3.66c-.22,1.67-.57,3.62-1.06,5.83H955.31a21.68,21.68,0,0,0-.33,2.2c-.06.72-.09,1.39-.09,2,0,3.63,1.1,6.48,3.32,8.55s5.34,3.11,9.4,3.11a25.24,25.24,0,0,0,8.74-1.66,34.84,34.84,0,0,0,7.54-3.74h.43l-1.59,7.82-3.46,1.27a33,33,0,0,1-3.93,1.16c-1.6.38-3,.68-4.24.88A28.29,28.29,0,0,1,966.47,200.11ZM981,172.87c.13-.75.22-1.37.27-1.89s.08-1.08.08-1.69a8.78,8.78,0,0,0-2.26-6.43q-2.25-2.31-7.23-2.31a15.15,15.15,0,0,0-9.73,3.39,16.77,16.77,0,0,0-5.75,8.93Z" transform="translate(-53.33 -26.44)"/><path class="cls-1" d="M1034.59,163.66h-.39a25.28,25.28,0,0,0-2.86-.54,24.72,24.72,0,0,0-3.22-.17,17.08,17.08,0,0,0-7.19,1.64,42.93,42.93,0,0,0-6.84,3.94l-7,30.6h-7.33l9.82-43.1h7.33l-1.46,6.37a44.15,44.15,0,0,1,8.71-5A18.78,18.78,0,0,1,1031,156a25.56,25.56,0,0,1,2.74.1c.56.06,1.39.18,2.47.36Z" transform="translate(-53.33 -26.44)"/><path class="cls-1" d="M1083.27,165.87c0,.62-.07,1.45-.18,2.51a20.17,20.17,0,0,1-.48,2.78l-6.49,28h-7.21l5.64-24.53c.31-1.37.55-2.56.71-3.58a19.33,19.33,0,0,0,.25-3,6.75,6.75,0,0,0-1.6-4.88q-1.61-1.63-5.77-1.64a15.62,15.62,0,0,0-6.47,1.62,48.6,48.6,0,0,0-6.9,3.87l-7.41,32.16h-7.25l13.84-60h7.24l-5,21.74a43.64,43.64,0,0,1,7.73-4.44,18.68,18.68,0,0,1,7.43-1.55c3.75,0,6.68.94,8.77,2.84S1083.27,162.29,1083.27,165.87Z" transform="translate(-53.33 -26.44)"/><path class="cls-1" d="M1117.08,200.11q-8.94,0-14-4.2t-5.08-12.3a29.6,29.6,0,0,1,7.48-20.31,23.68,23.68,0,0,1,18.5-8.47q7.32,0,11.21,3.65t3.9,10.24a31.44,31.44,0,0,1-.33,3.66c-.22,1.67-.57,3.62-1.06,5.83h-31.76a19.13,19.13,0,0,0-.32,2.2c-.07.72-.1,1.39-.1,2,0,3.63,1.1,6.48,3.32,8.55s5.35,3.11,9.4,3.11a25.28,25.28,0,0,0,8.74-1.66,34.61,34.61,0,0,0,7.54-3.74h.43l-1.58,7.82-3.47,1.27a33,33,0,0,1-3.93,1.16c-1.6.38-3,.68-4.24.88A28.24,28.24,0,0,1,1117.08,200.11Zm14.49-27.24c.13-.75.22-1.37.27-1.89s.08-1.08.08-1.69a8.83,8.83,0,0,0-2.26-6.43q-2.27-2.31-7.24-2.31a15.14,15.14,0,0,0-9.72,3.39,16.69,16.69,0,0,0-5.74,8.93Z" transform="translate(-53.33 -26.44)"/><path class="cls-1" d="M1167.65,156l-9.94,43.1h-7.26l9.93-43.1Zm3.94-14.72-1.74,7.53h-8.23l1.74-7.53Z" transform="translate(-53.33 -26.44)"/><path class="cls-1" d="M1211,156l-1.32,5.88h-15l-4.6,19.91c-.25,1-.48,2.16-.69,3.46a21.88,21.88,0,0,0-.31,3.11,5.56,5.56,0,0,0,1.43,4.19c1,.92,2.72,1.38,5.29,1.38a16.14,16.14,0,0,0,3.76-.55,26.57,26.57,0,0,0,3-.87h.39l-1.35,6.23a44.59,44.59,0,0,1-4.62.89,31.31,31.31,0,0,1-4.34.34c-3.55,0-6.31-.77-8.25-2.33s-2.91-4-2.91-7.39a16.73,16.73,0,0,1,.18-2.45c.11-.81.27-1.73.47-2.76l5.36-23.16h-4.89l1.32-5.88h4.94l2.86-12.37H1199L1196.06,156Z" transform="translate(-53.33 -26.44)"/><path class="cls-1" d="M1229.84,200.17a28.66,28.66,0,0,1-8.63-1.2,36,36,0,0,1-6.35-2.59l1.63-7.76h.38c.54.46,1.24,1,2.1,1.64a18.82,18.82,0,0,0,3.3,1.86,24,24,0,0,0,4.15,1.53,19.13,19.13,0,0,0,5,.63c3.63,0,6.47-.66,8.53-2a6.59,6.59,0,0,0,3.09-5.9,3.62,3.62,0,0,0-1.58-3.15,13.77,13.77,0,0,0-4.55-1.8c-1-.23-2.21-.49-3.61-.77s-2.83-.62-4.27-1a13.78,13.78,0,0,1-6.67-3.69,8.51,8.51,0,0,1-2.16-5.89,12.5,12.5,0,0,1,1.31-5.64,15.33,15.33,0,0,1,3.9-4.82,18.87,18.87,0,0,1,6.29-3.39,26.4,26.4,0,0,1,8.49-1.29,31.11,31.11,0,0,1,7.69,1,24,24,0,0,1,6.27,2.39l-1.54,7.43h-.38c-.42-.34-1-.78-1.88-1.35a20.94,20.94,0,0,0-7.06-3,19,19,0,0,0-4.61-.55,13.78,13.78,0,0,0-7.84,2,6.32,6.32,0,0,0-3,5.53,4.09,4.09,0,0,0,1.47,3.22,10.35,10.35,0,0,0,4.47,2q1.89.47,4,.87c1.38.27,2.71.56,4,.87a13.78,13.78,0,0,1,6.73,3.48,8.22,8.22,0,0,1,2.26,5.91,12.92,12.92,0,0,1-1.41,5.81,14.36,14.36,0,0,1-4.07,4.92,20.16,20.16,0,0,1-6.64,3.44A28.74,28.74,0,0,1,1229.84,200.17Z" transform="translate(-53.33 -26.44)"/><path class="cls-1" d="M1295.55,199.13h-34.77l1.23-5.34,32-32h-24.61l1.35-5.78h33.74l-1.2,5.18-32.15,32.15h25.78Z" transform="translate(-53.33 -26.44)"/><path class="cls-1" d="M1332.64,200.11q-9,0-14-4.2t-5.08-12.3A29.59,29.59,0,0,1,1321,163.3a23.7,23.7,0,0,1,18.5-8.47c4.88,0,8.63,1.22,11.22,3.65s3.9,5.84,3.9,10.24a32,32,0,0,1-.34,3.66c-.22,1.67-.57,3.62-1,5.83h-31.76a19.19,19.19,0,0,0-.33,2.2c-.07.72-.09,1.39-.09,2q0,5.44,3.31,8.55t9.41,3.11a25.32,25.32,0,0,0,8.74-1.66,35.07,35.07,0,0,0,7.54-3.74h.42l-1.58,7.82-3.46,1.27a33.58,33.58,0,0,1-3.93,1.16c-1.6.38-3,.68-4.24.88A28.33,28.33,0,0,1,1332.64,200.11Zm14.49-27.24c.12-.75.22-1.37.27-1.89s.08-1.08.08-1.69a8.83,8.83,0,0,0-2.26-6.43q-2.27-2.31-7.24-2.31a15.14,15.14,0,0,0-9.72,3.39,16.65,16.65,0,0,0-5.75,8.93Z" transform="translate(-53.33 -26.44)"/><path class="cls-1" d="M1409.11,165.87a23.52,23.52,0,0,1-.18,2.51,20.27,20.27,0,0,1-.47,2.78l-6.45,28h-7.21l5.6-24.53c.31-1.37.54-2.56.71-3.57a19.55,19.55,0,0,0,.25-3,6.7,6.7,0,0,0-1.6-4.88q-1.6-1.63-5.79-1.64a15.73,15.73,0,0,0-6.47,1.62,49.16,49.16,0,0,0-6.9,3.87l-7.4,32.16H1366l9.92-43.1h7.26l-1.1,4.79a43.29,43.29,0,0,1,7.73-4.44,18.67,18.67,0,0,1,7.42-1.55c3.76,0,6.68.94,8.78,2.84S1409.11,162.29,1409.11,165.87Z" transform="translate(-53.33 -26.44)"/><path class="cls-1" d="M1454.93,156l-1.31,5.88h-15L1434,181.82c-.25,1-.48,2.16-.69,3.46a20.49,20.49,0,0,0-.31,3.11,5.52,5.52,0,0,0,1.43,4.19q1.42,1.38,5.29,1.38a16.07,16.07,0,0,0,3.76-.55,26.57,26.57,0,0,0,3-.87h.39l-1.35,6.23a44.59,44.59,0,0,1-4.62.89,31.42,31.42,0,0,1-4.34.34c-3.55,0-6.3-.77-8.25-2.33s-2.91-4-2.91-7.39a16.72,16.72,0,0,1,.17-2.45q.18-1.22.48-2.76l5.36-23.16h-4.89l1.32-5.88h4.93l2.86-12.37h7.27L1440,156Z" transform="translate(-53.33 -26.44)"/><path class="cls-1" d="M1495.08,163.66h-.38a25.85,25.85,0,0,0-2.87-.54,24.72,24.72,0,0,0-3.22-.17,17.07,17.07,0,0,0-7.18,1.64,42.5,42.5,0,0,0-6.84,3.94l-7,30.6h-7.32l9.82-43.1h7.32L1476,162.4a44.4,44.4,0,0,1,8.7-5,18.82,18.82,0,0,1,6.85-1.39,25.19,25.19,0,0,1,2.74.1c.57.06,1.39.18,2.48.36Z" transform="translate(-53.33 -26.44)"/><path class="cls-1" d="M1546.25,156l-10,43.1h-7.25l1.1-4.76a51,51,0,0,1-7.7,4.38,18.43,18.43,0,0,1-7.54,1.58q-5.55,0-8.68-2.79t-3.12-8.17a17.56,17.56,0,0,1,.18-2.54q.17-1.25.48-2.82l6.45-28h7.25l-5.66,24.53c-.23,1-.45,2.15-.66,3.44a21,21,0,0,0-.3,3.05,6.72,6.72,0,0,0,1.67,5q1.68,1.65,5.72,1.65a16.32,16.32,0,0,0,6.53-1.65,44.76,44.76,0,0,0,6.79-3.79L1539,156Z" transform="translate(-53.33 -26.44)"/><path class="cls-1" d="M1627.29,165.56a23.57,23.57,0,0,1-.17,2.7,28.11,28.11,0,0,1-.52,2.9l-6.47,28h-7.2l5.63-24.53q.46-2.06.75-3.78a20.09,20.09,0,0,0,.28-3.24,6.45,6.45,0,0,0-1.46-4.52c-1-1.05-2.86-1.58-5.62-1.58a14.53,14.53,0,0,0-6.46,1.7,57.62,57.62,0,0,0-6.77,4c0,.64-.14,1.38-.25,2.2s-.25,1.56-.4,2.2l-6.34,27.58h-7.22l5.63-24.53c.34-1.6.6-2.9.81-3.92a16,16,0,0,0,.3-3.1q0-3.53-1.92-4.81a9.32,9.32,0,0,0-5.22-1.29,13.64,13.64,0,0,0-5.18,1.18,48.14,48.14,0,0,0-7.62,4.31l-7.4,32.16h-7.26l9.93-43.1h7.25l-1.1,4.79a49.93,49.93,0,0,1,7.5-4.41,17.33,17.33,0,0,1,7.27-1.58,12.29,12.29,0,0,1,7.08,1.86,8.75,8.75,0,0,1,3.61,5.13,44.93,44.93,0,0,1,9.15-5.35,21.32,21.32,0,0,1,8-1.64q5.67,0,8.54,2.82C1626.34,159.53,1627.29,162.16,1627.29,165.56Z" transform="translate(-53.33 -26.44)"/></svg>